<?xml version="1.0" encoding="iso-8859-1"?>
<!-- Generator: Adobe Illustrator 21.0.0, SVG Export Plug-In . SVG Version: 6.00 Build 0)  -->
<svg version="1.1" id="Layer_1" xmlns="http://www.w3.org/2000/svg" xmlns:xlink="http://www.w3.org/1999/xlink" x="0px" y="0px"
	 viewBox="0 0 200 200" style="enable-background:new 0 0 200 200;" xml:space="preserve">
<style type="text/css">
	.st0{fill:#405C70;}
	.st1{fill:#2F4352;}
	.st2{fill:#1C2830;}
	.st3{fill:#19242B;}
	.st4{fill:#0A848F;}
	.st5{fill:#076870;}
	.st6{fill:#4EBFC9;}
	.st7{opacity:0.42;fill:#0B194F;}
	.st8{fill:#43C494;}
	.st9{fill:#4AAA88;}
	.st10{fill:#7FE0BF;}
	.st11{opacity:0.76;fill:#43C4A6;}
	.st12{fill:#FDE5A6;}
	.st13{fill:#E9D399;}
	.st14{fill:#D9BB6F;}
	.st15{fill:none;stroke:#3DB8FF;stroke-width:2;stroke-linejoin:round;stroke-miterlimit:10;}
	.st16{fill:none;stroke:#3DB8FF;stroke-width:2;stroke-linecap:round;stroke-linejoin:round;stroke-miterlimit:10;}
</style>
<g id="logo_x60_19x33">
	<polygon class="st0" points="18.959,25.987 9.591,30.815 0,25.901 9.368,21.072 	"/>
	<polygon class="st1" points="15.003,23.96 9.498,26.797 3.863,23.91 9.368,21.072 	"/>
	<polygon class="st2" points="9.591,30.828 18.959,26 18.959,27.378 9.591,32.207 	"/>
	<polygon class="st3" points="9.591,30.828 0,25.901 0,27.279 9.591,32.207 	"/>
	<polygon class="st4" points="9.688,23.017 17.325,19.079 17.325,20.228 9.688,24.165 	"/>
	<polygon class="st5" points="9.688,23.017 2.049,19.079 2.049,20.228 9.688,24.165 	"/>
	<polygon class="st6" points="17.325,19.079 9.688,23.017 2.049,19.079 9.688,15.143 	"/>
	<polygon class="st7" points="15.311,18.046 9.688,20.945 4.063,18.046 9.688,15.148 	"/>
	<polygon class="st8" points="9.688,16.896 18.942,12.127 18.942,13.517 9.688,18.287 	"/>
	<polygon class="st9" points="9.688,16.896 0.432,12.127 0.432,13.517 9.688,18.287 	"/>
	<polygon class="st10" points="18.942,12.127 9.688,16.896 0.432,12.127 9.688,7.356 	"/>
	<polygon class="st11" points="16.501,10.873 9.688,14.386 2.873,10.873 9.688,7.361 	"/>
	<polygon class="st12" points="18.94,4.803 9.623,9.604 0.306,4.803 9.623,0 	"/>
	<polygon class="st13" points="9.623,9.604 18.94,4.803 18.94,6.204 9.623,11.006 	"/>
	<polygon class="st14" points="9.623,9.604 0.306,4.803 0.306,6.204 9.623,11.006 	"/>
</g>
<g id="nav-local_x60_20x14">
	<g>
		<rect x="1" y="1" class="st15" width="17.809" height="11.461"/>
	</g>
	<line class="st16" x1="4.516" y1="5.272" x2="6.579" y2="5.272"/>
</g>
<g id="nav-deploy_x60_15x17">
	<g>
		<polyline class="st15" points="13.977,7.635 7.342,1 0.707,7.635 		"/>
	</g>
	<g>
		<line class="st15" x1="7.342" y1="1" x2="7.342" y2="16.183"/>
	</g>
</g>
<g id="nav-production_x60_17x20">
	<g>
		<polygon class="st15" points="15.846,13.856 8.423,18.142 1.001,13.856 1.001,5.285 8.423,1 15.846,5.285 		"/>
	</g>
	<g>
		<polygon class="st15" points="15.846,5.285 8.423,9.571 8.423,18.142 15.846,13.856 		"/>
	</g>
	<g>
		<polyline class="st15" points="8.423,18.142 1,13.856 1,5.285 		"/>
	</g>
</g>
</svg>
